# xmcd
#
# Track frame offsets:
#	150
#	12120
#	37325
#	49757
#	73507
#	88255
#	109980
#	125292
#	144152
#	160765
#	184415
#	197425
#	216727
#	241560
#	249802
#	264575
#	278325
#	296372
#	311930
#	324568
#	340433
#
# Disc length: 4721 seconds
#
# Revision: 1
# Processed by: cddbd v1.5.2PL0 Copyright (c) Steve Scherf et al.
# Submitted via: audiograbber 1.83.01
#
DISCID=37126f15
DTITLE=B.B.King - His definitive greatest Hits [CD 2)
DYEAR=1900
DGENRE=
TTITLE0=01 - Help the poor
TTITLE1=02 - So excited
TTITLE2=03 - Broken heart
TTITLE3=04 - Ghetto woman
TTITLE4=05 - Ain't nobody home
TTITLE5=06 - Darlin', you know I love you
TTITLE6=07 - In the midnight hour
TTITLE7=08 - Into the night
TTITLE8=09 - My Lucille
TTITLE9=10 - The blues come over me
TTITLE10=11 - Since I met you, baby - with Gary Moore
TTITLE11=12 - I'm moving on
TTITLE12=13 - Let the good times roll - with Bobby Bland
TTITLE13=14 - Woke up this morning
TTITLE14=15 - 3 o'clock blues
TTITLE15=16 - Please love me
TTITLE16=17 - Caledonia
TTITLE17=18 - Rock me baby
TTITLE18=19 - I want a little girl
TTITLE19=20 - I'll string along with you
TTITLE20=21 - I need you so
EXTD=
EXTT0=
EXTT1=
EXTT2=
EXTT3=
EXTT4=
EXTT5=
EXTT6=
EXTT7=
EXTT8=
EXTT9=
EXTT10=
EXTT11=
EXTT12=
EXTT13=
EXTT14=
EXTT15=
EXTT16=
EXTT17=
EXTT18=
EXTT19=
EXTT20=
PLAYORDER=
